<svg xmlns="http://www.w3.org/2000/svg" viewBox="0 0 566 566"><defs><clipPath id="a"><path d="M356 76h568v568H356z"/></clipPath></defs><g fill-rule="evenodd" clip-path="url(#a)" transform="translate(-357 -77)"><path fill="#5279f2" d="M357 195.3C357 129.965 409.965 77 475.3 77h329.4C870.035 77 923 129.965 923 195.3v329.4c0 65.335-52.965 118.3-118.3 118.3H475.3C409.965 643 357 590.035 357 524.7z"/><path fill="#fff" d="m589.87 309.87 217.49-117.24-117.24 217.49-217.49 117.24z"/><path fill="#5279f2" d="M597 360c0-23.748 19.252-43 43-43s43 19.252 43 43-19.252 43-43 43-43-19.252-43-43"/></g></svg>